<svg width="209" height="209" viewBox="0 0 209 209" fill="none" xmlns="http://www.w3.org/2000/svg">
<g clip-path="url(#clip0_333_39)">
<path fill-rule="evenodd" clip-rule="evenodd" d="M133.476 43H52V55.3865H133.476L135.089 55.4344C145.196 56.0372 153.143 62.2554 153.143 69.8374V160H170V69.8374L169.942 68.3145C168.868 54.2011 152.952 43 133.476 43Z" fill="#4B49D5" fill-opacity="0.3"/>
<path fill-rule="evenodd" clip-rule="evenodd" d="M138.219 37.0625H63V52.625H138.219L139.708 52.6852C149.039 53.4426 156.375 61.2552 156.375 70.7812V146H171.937V70.7812L171.884 68.8679C170.892 51.1357 156.199 37.0625 138.219 37.0625Z" fill="url(#paint0_linear_333_39)"/>
<path d="M200.469 156.375C204.766 156.375 208.25 159.859 208.25 164.156C208.25 168.096 205.323 171.351 201.525 171.866L200.469 171.937H171.937V200.469C171.937 204.766 168.454 208.25 164.156 208.25C160.217 208.25 156.961 205.323 156.446 201.525L156.375 200.469V171.937H70.7812C52.801 171.937 38.1078 157.864 37.1159 140.132L37.0625 138.219L37.0521 52.625H8.53125C4.23378 52.625 0.75 49.1412 0.75 44.8437C0.75 40.9044 3.67735 37.6488 7.47538 37.1335L8.53125 37.0625H37.0521L37.0625 8.53125C37.0625 4.23378 40.5463 0.75 44.8437 0.75C48.7831 0.75 52.0387 3.67735 52.554 7.47538L52.625 8.53125L52.6146 37.0625L52.625 52.625V138.219C52.625 147.745 59.9613 155.557 69.2922 156.315L70.7812 156.375H200.469Z" fill="url(#paint1_linear_333_39)"/>
<path d="M98.008 140C90.68 140 85.256 138.256 81.736 134.768C78.248 131.248 76.504 125.824 76.504 118.496V78.944C76.504 77.6 76.84 76.592 77.512 75.92C78.184 75.248 79.192 74.912 80.536 74.912C81.88 74.912 82.888 75.248 83.56 75.92C84.232 76.592 84.568 77.6 84.568 78.944V118.496C84.568 121.92 84.968 124.608 85.768 126.56C86.6 128.512 87.992 129.904 89.944 130.736C91.896 131.536 94.584 131.936 98.008 131.936H109.528C112.952 131.936 115.64 131.536 117.592 130.736C119.544 129.904 120.92 128.512 121.72 126.56C122.552 124.608 122.968 121.92 122.968 118.496V78.944C122.968 77.6 123.304 76.592 123.976 75.92C124.648 75.248 125.656 74.912 127 74.912C128.344 74.912 129.352 75.248 130.024 75.92C130.696 76.592 131.032 77.6 131.032 78.944V118.496C131.032 125.824 129.288 131.248 125.8 134.768C122.312 138.256 116.888 140 109.528 140H98.008Z" fill="#1E1E1E"/>
<path d="M81.736 134.768L79.605 136.88L79.6147 136.889L79.6244 136.899L81.736 134.768ZM83.56 75.92L85.6813 73.7987L85.6813 73.7987L83.56 75.92ZM85.768 126.56L82.9921 127.698L83 127.717L83.0082 127.736L85.768 126.56ZM89.944 130.736L88.7677 133.496L88.787 133.504L88.8063 133.512L89.944 130.736ZM117.592 130.736L118.73 133.512L118.749 133.504L118.768 133.496L117.592 130.736ZM121.72 126.56L118.96 125.384L118.952 125.403L118.944 125.422L121.72 126.56ZM125.8 134.768L127.921 136.889L127.931 136.88L125.8 134.768ZM98.008 137C91.0951 137 86.5858 135.35 83.8476 132.637L79.6244 136.899C83.9262 141.162 90.2649 143 98.008 143V137ZM83.867 132.656C81.1537 129.918 79.504 125.409 79.504 118.496H73.504C73.504 126.239 75.3423 132.578 79.605 136.88L83.867 132.656ZM79.504 118.496V78.944H73.504V118.496H79.504ZM79.504 78.944C79.504 78.0624 79.7224 77.9523 79.6333 78.0413L75.3907 73.7987C73.9576 75.2317 73.504 77.1376 73.504 78.944H79.504ZM79.6333 78.0413C79.5443 78.1304 79.6544 77.912 80.536 77.912V71.912C78.7296 71.912 76.8237 72.3656 75.3907 73.7987L79.6333 78.0413ZM80.536 77.912C81.4176 77.912 81.5277 78.1304 81.4387 78.0413L85.6813 73.7987C84.2483 72.3656 82.3424 71.912 80.536 71.912V77.912ZM81.4387 78.0413C81.3496 77.9523 81.568 78.0624 81.568 78.944H87.568C87.568 77.1376 87.1144 75.2317 85.6813 73.7987L81.4387 78.0413ZM81.568 78.944V118.496H87.568V78.944H81.568ZM81.568 118.496C81.568 122.097 81.9804 125.229 82.9921 127.698L88.5439 125.422C87.9556 123.987 87.568 121.743 87.568 118.496H81.568ZM83.0082 127.736C84.1439 130.401 86.1033 132.36 88.7677 133.496L91.1203 127.976C89.8807 127.448 89.0561 126.623 88.5278 125.384L83.0082 127.736ZM88.8063 133.512C91.2747 134.524 94.407 134.936 98.008 134.936V128.936C94.761 128.936 92.5173 128.548 91.0817 127.96L88.8063 133.512ZM98.008 134.936H109.528V128.936H98.008V134.936ZM109.528 134.936C113.129 134.936 116.261 134.524 118.73 133.512L116.454 127.96C115.019 128.548 112.775 128.936 109.528 128.936V134.936ZM118.768 133.496C121.441 132.356 123.395 130.384 124.496 127.698L118.944 125.422C118.445 126.64 117.647 127.452 116.416 127.976L118.768 133.496ZM124.48 127.736C125.538 125.254 125.968 122.106 125.968 118.496H119.968C119.968 121.734 119.566 123.962 118.96 125.384L124.48 127.736ZM125.968 118.496V78.944H119.968V118.496H125.968ZM125.968 78.944C125.968 78.0624 126.186 77.9523 126.097 78.0413L121.855 73.7987C120.422 75.2317 119.968 77.1376 119.968 78.944H125.968ZM126.097 78.0413C126.008 78.1304 126.118 77.912 127 77.912V71.912C125.194 71.912 123.288 72.3656 121.855 73.7987L126.097 78.0413ZM127 77.912C127.882 77.912 127.992 78.1304 127.903 78.0413L132.145 73.7987C130.712 72.3656 128.806 71.912 127 71.912V77.912ZM127.903 78.0413C127.814 77.9523 128.032 78.0624 128.032 78.944H134.032C134.032 77.1376 133.578 75.2317 132.145 73.7987L127.903 78.0413ZM128.032 78.944V118.496H134.032V78.944H128.032ZM128.032 118.496C128.032 125.409 126.382 129.918 123.669 132.656L127.931 136.88C132.194 132.578 134.032 126.239 134.032 118.496H128.032ZM123.679 132.647C120.978 135.347 116.48 137 109.528 137V143C117.296 143 123.646 141.165 127.921 136.889L123.679 132.647ZM109.528 137H98.008V143H109.528V137Z" fill="#1E1E1E"/>
</g>
<defs>
<linearGradient id="paint0_linear_333_39" x1="104.5" y1="0.75" x2="104.5" y2="208.25" gradientUnits="userSpaceOnUse">
<stop stop-color="#4B49D5"/>
<stop offset="0.515" stop-color="#6B51B1"/>
<stop offset="1" stop-color="#9B5CCD"/>
</linearGradient>
<linearGradient id="paint1_linear_333_39" x1="104.5" y1="0.75" x2="104.5" y2="208.25" gradientUnits="userSpaceOnUse">
<stop stop-color="#4B49D5"/>
<stop offset="0.515" stop-color="#6B51B1"/>
<stop offset="1" stop-color="#9B5CCD"/>
</linearGradient>
<clipPath id="clip0_333_39">
<rect width="209" height="209" fill="white"/>
</clipPath>
</defs>
</svg>
