<svg width="209" height="209" viewBox="0 0 209 209" fill="none" xmlns="http://www.w3.org/2000/svg">
<g clip-path="url(#clip0_333_39)">
<path fill-rule="evenodd" clip-rule="evenodd" d="M133.476 43H52V55.3865H133.476L135.089 55.4344C145.196 56.0372 153.143 62.2554 153.143 69.8374V160H170V69.8374L169.942 68.3145C168.868 54.2011 152.952 43 133.476 43Z" fill="#4B49D5" fill-opacity="0.3"/>
<path fill-rule="evenodd" clip-rule="evenodd" d="M138.219 37.0625H63V52.625H138.219L139.708 52.6852C149.039 53.4426 156.375 61.2552 156.375 70.7812V146H171.937V70.7812L171.884 68.8679C170.892 51.1357 156.199 37.0625 138.219 37.0625Z" fill="url(#paint0_linear_333_39)"/>
<path d="M200.469 156.375C204.766 156.375 208.25 159.859 208.25 164.156C208.25 168.096 205.323 171.351 201.525 171.866L200.469 171.937H171.937V200.469C171.937 204.766 168.454 208.25 164.156 208.25C160.217 208.25 156.961 205.323 156.446 201.525L156.375 200.469V171.937H70.7812C52.801 171.937 38.1078 157.864 37.1159 140.132L37.0625 138.219L37.0521 52.625H8.53125C4.23378 52.625 0.75 49.1412 0.75 44.8437C0.75 40.9044 3.67735 37.6488 7.47538 37.1335L8.53125 37.0625H37.0521L37.0625 8.53125C37.0625 4.23378 40.5463 0.75 44.8437 0.75C48.7831 0.75 52.0387 3.67735 52.554 7.47538L52.625 8.53125L52.6146 37.0625L52.625 52.625V138.219C52.625 147.745 59.9613 155.557 69.2922 156.315L70.7812 156.375H200.469Z" fill="url(#paint1_linear_333_39)"/>
</g>
<defs>
<linearGradient id="paint0_linear_333_39" x1="104.5" y1="0.75" x2="104.5" y2="208.25" gradientUnits="userSpaceOnUse">
<stop stop-color="#4B49D5"/>
<stop offset="0.515" stop-color="#6B51B1"/>
<stop offset="1" stop-color="#9B5CCD"/>
</linearGradient>
<linearGradient id="paint1_linear_333_39" x1="104.5" y1="0.75" x2="104.5" y2="208.25" gradientUnits="userSpaceOnUse">
<stop stop-color="#4B49D5"/>
<stop offset="0.515" stop-color="#6B51B1"/>
<stop offset="1" stop-color="#9B5CCD"/>
</linearGradient>
<clipPath id="clip0_333_39">
<rect width="209" height="209" fill="white"/>
</clipPath>
</defs>
</svg>
